<mxfile host="app.diagrams.net" modified="2020-05-25T05:07:08.843Z" agent="5.0 (Macintosh; Intel Mac OS X 10_15_4) AppleWebKit/537.36 (KHTML, like Gecko) Chrome/81.0.4044.138 Safari/537.36 Edg/81.0.416.72" etag="b1QYS15umhxHOw3m4FgH" version="13.1.3" type="github">
  <diagram id="8Co48sxN-NjlgN4VRDWK" name="Page-1">
    <mxGraphModel dx="2767" dy="760" grid="1" gridSize="10" guides="1" tooltips="1" connect="1" arrows="1" fold="1" page="1" pageScale="1" pageWidth="827" pageHeight="1169" math="0" shadow="0">
      <root>
        <mxCell id="0" />
        <mxCell id="1" parent="0" />
        <mxCell id="Rv2WYrNyMHWKFGt1J1lI-4" value="Connection failure" style="edgeStyle=orthogonalEdgeStyle;rounded=0;orthogonalLoop=1;jettySize=auto;html=1;entryX=0;entryY=0.5;entryDx=0;entryDy=0;exitX=0.5;exitY=1;exitDx=0;exitDy=0;" parent="1" source="YEaYYTI55QeRDShldJgF-1" target="Rv2WYrNyMHWKFGt1J1lI-2" edge="1">
          <mxGeometry relative="1" as="geometry" />
        </mxCell>
        <mxCell id="Rv2WYrNyMHWKFGt1J1lI-9" value="HTTP request" style="edgeStyle=orthogonalEdgeStyle;rounded=0;orthogonalLoop=1;jettySize=auto;html=1;" parent="1" source="YEaYYTI55QeRDShldJgF-1" target="Rv2WYrNyMHWKFGt1J1lI-5" edge="1">
          <mxGeometry relative="1" as="geometry" />
        </mxCell>
        <mxCell id="YEaYYTI55QeRDShldJgF-1" value="Fetch()" style="rounded=0;whiteSpace=wrap;html=1;" parent="1" vertex="1">
          <mxGeometry x="270" y="282" width="84" height="60" as="geometry" />
        </mxCell>
        <mxCell id="Rv2WYrNyMHWKFGt1J1lI-36" style="edgeStyle=orthogonalEdgeStyle;rounded=0;comic=0;jumpStyle=arc;orthogonalLoop=1;jettySize=auto;html=1;entryX=0.5;entryY=0;entryDx=0;entryDy=0;" parent="1" source="YEaYYTI55QeRDShldJgF-2" target="Rv2WYrNyMHWKFGt1J1lI-49" edge="1">
          <mxGeometry relative="1" as="geometry" />
        </mxCell>
        <mxCell id="YEaYYTI55QeRDShldJgF-2" value="url" style="rounded=0;whiteSpace=wrap;html=1;fillColor=#d5e8d4;strokeColor=#82b366;" parent="1" vertex="1">
          <mxGeometry x="10" y="138" width="84" height="40" as="geometry" />
        </mxCell>
        <mxCell id="Rv2WYrNyMHWKFGt1J1lI-50" style="edgeStyle=orthogonalEdgeStyle;rounded=0;comic=0;jumpStyle=arc;orthogonalLoop=1;jettySize=auto;html=1;" parent="1" source="YEaYYTI55QeRDShldJgF-3" target="Rv2WYrNyMHWKFGt1J1lI-49" edge="1">
          <mxGeometry relative="1" as="geometry" />
        </mxCell>
        <mxCell id="YEaYYTI55QeRDShldJgF-3" value="Body" style="rounded=0;whiteSpace=wrap;html=1;fillColor=#d5e8d4;strokeColor=#82b366;" parent="1" vertex="1">
          <mxGeometry x="10" y="293" width="84" height="40" as="geometry" />
        </mxCell>
        <mxCell id="Rv2WYrNyMHWKFGt1J1lI-12" style="edgeStyle=orthogonalEdgeStyle;rounded=0;orthogonalLoop=1;jettySize=auto;html=1;comic=0;jumpStyle=arc;" parent="1" source="Rv2WYrNyMHWKFGt1J1lI-1" target="Rv2WYrNyMHWKFGt1J1lI-10" edge="1">
          <mxGeometry relative="1" as="geometry" />
        </mxCell>
        <mxCell id="Rv2WYrNyMHWKFGt1J1lI-1" value="Resolves" style="rounded=0;whiteSpace=wrap;html=1;" parent="1" vertex="1">
          <mxGeometry x="360" y="205" width="84" height="40" as="geometry" />
        </mxCell>
        <mxCell id="Rv2WYrNyMHWKFGt1J1lI-11" style="edgeStyle=orthogonalEdgeStyle;rounded=0;orthogonalLoop=1;jettySize=auto;html=1;entryX=0.75;entryY=0;entryDx=0;entryDy=0;" parent="1" source="Rv2WYrNyMHWKFGt1J1lI-2" target="Rv2WYrNyMHWKFGt1J1lI-10" edge="1">
          <mxGeometry relative="1" as="geometry">
            <Array as="points">
              <mxPoint x="472" y="540" />
              <mxPoint x="432" y="540" />
            </Array>
          </mxGeometry>
        </mxCell>
        <mxCell id="Rv2WYrNyMHWKFGt1J1lI-2" value="Rejects" style="rounded=0;whiteSpace=wrap;html=1;" parent="1" vertex="1">
          <mxGeometry x="430" y="405" width="84" height="40" as="geometry" />
        </mxCell>
        <mxCell id="Rv2WYrNyMHWKFGt1J1lI-7" value="Connection issue" style="edgeStyle=orthogonalEdgeStyle;rounded=0;orthogonalLoop=1;jettySize=auto;html=1;entryX=1;entryY=0.5;entryDx=0;entryDy=0;exitX=0.508;exitY=1.014;exitDx=0;exitDy=0;exitPerimeter=0;" parent="1" source="Rv2WYrNyMHWKFGt1J1lI-5" target="Rv2WYrNyMHWKFGt1J1lI-2" edge="1">
          <mxGeometry relative="1" as="geometry">
            <Array as="points">
              <mxPoint x="621" y="425" />
            </Array>
          </mxGeometry>
        </mxCell>
        <mxCell id="Rv2WYrNyMHWKFGt1J1lI-8" value="HTTP response" style="edgeStyle=orthogonalEdgeStyle;rounded=0;orthogonalLoop=1;jettySize=auto;html=1;entryX=1;entryY=0.5;entryDx=0;entryDy=0;exitX=0.575;exitY=0.014;exitDx=0;exitDy=0;exitPerimeter=0;" parent="1" source="Rv2WYrNyMHWKFGt1J1lI-5" target="Rv2WYrNyMHWKFGt1J1lI-1" edge="1">
          <mxGeometry relative="1" as="geometry" />
        </mxCell>
        <mxCell id="Rv2WYrNyMHWKFGt1J1lI-5" value="" style="html=1;verticalLabelPosition=bottom;align=center;labelBackgroundColor=#ffffff;verticalAlign=top;strokeWidth=2;strokeColor=#0080F0;shadow=0;dashed=0;shape=mxgraph.ios7.icons.cloud;" parent="1" vertex="1">
          <mxGeometry x="560" y="275" width="120" height="70" as="geometry" />
        </mxCell>
        <mxCell id="Rv2WYrNyMHWKFGt1J1lI-57" style="edgeStyle=orthogonalEdgeStyle;rounded=0;comic=0;jumpStyle=arc;orthogonalLoop=1;jettySize=auto;html=1;entryX=1;entryY=0.5;entryDx=0;entryDy=0;" parent="1" source="Rv2WYrNyMHWKFGt1J1lI-10" target="Rv2WYrNyMHWKFGt1J1lI-54" edge="1">
          <mxGeometry relative="1" as="geometry" />
        </mxCell>
        <mxCell id="Rv2WYrNyMHWKFGt1J1lI-10" value="Response &lt;br&gt;Processor" style="rounded=0;whiteSpace=wrap;html=1;" parent="1" vertex="1">
          <mxGeometry x="342" y="610" width="120" height="60" as="geometry" />
        </mxCell>
        <mxCell id="Rv2WYrNyMHWKFGt1J1lI-22" style="edgeStyle=orthogonalEdgeStyle;rounded=0;comic=0;jumpStyle=arc;orthogonalLoop=1;jettySize=auto;html=1;entryX=0;entryY=0.5;entryDx=0;entryDy=0;exitX=0.25;exitY=1;exitDx=0;exitDy=0;" parent="1" source="Rv2WYrNyMHWKFGt1J1lI-13" target="Rv2WYrNyMHWKFGt1J1lI-21" edge="1">
          <mxGeometry relative="1" as="geometry" />
        </mxCell>
        <mxCell id="Rv2WYrNyMHWKFGt1J1lI-63" style="edgeStyle=orthogonalEdgeStyle;rounded=0;comic=0;jumpStyle=arc;orthogonalLoop=1;jettySize=auto;html=1;entryX=0;entryY=0.5;entryDx=0;entryDy=0;exitX=0.75;exitY=1;exitDx=0;exitDy=0;" parent="1" source="Rv2WYrNyMHWKFGt1J1lI-13" target="Rv2WYrNyMHWKFGt1J1lI-37" edge="1">
          <mxGeometry relative="1" as="geometry" />
        </mxCell>
        <mxCell id="Rv2WYrNyMHWKFGt1J1lI-64" style="edgeStyle=orthogonalEdgeStyle;rounded=0;comic=0;jumpStyle=arc;orthogonalLoop=1;jettySize=auto;html=1;entryX=0;entryY=0.5;entryDx=0;entryDy=0;exitX=0.5;exitY=1;exitDx=0;exitDy=0;" parent="1" source="Rv2WYrNyMHWKFGt1J1lI-13" target="Rv2WYrNyMHWKFGt1J1lI-32" edge="1">
          <mxGeometry relative="1" as="geometry" />
        </mxCell>
        <mxCell id="Rv2WYrNyMHWKFGt1J1lI-13" value="Open API spec" style="rounded=0;whiteSpace=wrap;html=1;fillColor=#dae8fc;strokeColor=#6c8ebf;" parent="1" vertex="1">
          <mxGeometry x="-930" y="203" width="120" height="30" as="geometry" />
        </mxCell>
        <mxCell id="Rv2WYrNyMHWKFGt1J1lI-26" value="Endpoint" style="edgeStyle=orthogonalEdgeStyle;rounded=0;comic=0;jumpStyle=arc;orthogonalLoop=1;jettySize=auto;html=1;exitX=0.5;exitY=0;exitDx=0;exitDy=0;entryX=0.25;entryY=0;entryDx=0;entryDy=0;" parent="1" source="Rv2WYrNyMHWKFGt1J1lI-13" target="Rv2WYrNyMHWKFGt1J1lI-15" edge="1">
          <mxGeometry relative="1" as="geometry">
            <Array as="points">
              <mxPoint x="-870" y="170" />
              <mxPoint x="-507" y="170" />
            </Array>
          </mxGeometry>
        </mxCell>
        <mxCell id="Rv2WYrNyMHWKFGt1J1lI-27" value="URI" style="edgeStyle=orthogonalEdgeStyle;rounded=0;comic=0;jumpStyle=arc;orthogonalLoop=1;jettySize=auto;html=1;entryX=0;entryY=0.75;entryDx=0;entryDy=0;exitX=0.5;exitY=0;exitDx=0;exitDy=0;" parent="1" source="Rv2WYrNyMHWKFGt1J1lI-15" target="Rv2WYrNyMHWKFGt1J1lI-34" edge="1">
          <mxGeometry relative="1" as="geometry" />
        </mxCell>
        <mxCell id="Rv2WYrNyMHWKFGt1J1lI-28" value="method" style="edgeStyle=orthogonalEdgeStyle;rounded=0;comic=0;jumpStyle=arc;orthogonalLoop=1;jettySize=auto;html=1;entryX=0.5;entryY=0;entryDx=0;entryDy=0;" parent="1" source="Rv2WYrNyMHWKFGt1J1lI-15" target="Rv2WYrNyMHWKFGt1J1lI-41" edge="1">
          <mxGeometry relative="1" as="geometry">
            <mxPoint x="-70" y="220" as="targetPoint" />
          </mxGeometry>
        </mxCell>
        <mxCell id="Rv2WYrNyMHWKFGt1J1lI-15" value="Method + URI" style="rounded=0;whiteSpace=wrap;html=1;fillColor=#fff2cc;strokeColor=#d6b656;" parent="1" vertex="1">
          <mxGeometry x="-530" y="203" width="90" height="30" as="geometry" />
        </mxCell>
        <mxCell id="Rv2WYrNyMHWKFGt1J1lI-18" style="edgeStyle=orthogonalEdgeStyle;rounded=0;comic=0;jumpStyle=arc;orthogonalLoop=1;jettySize=auto;html=1;exitX=1;exitY=0.5;exitDx=0;exitDy=0;" parent="1" source="Rv2WYrNyMHWKFGt1J1lI-13" target="Rv2WYrNyMHWKFGt1J1lI-15" edge="1">
          <mxGeometry relative="1" as="geometry" />
        </mxCell>
        <mxCell id="Rv2WYrNyMHWKFGt1J1lI-19" value="resolve" style="edgeStyle=orthogonalEdgeStyle;rounded=0;comic=0;jumpStyle=arc;orthogonalLoop=1;jettySize=auto;html=1;entryX=0;entryY=0.5;entryDx=0;entryDy=0;" parent="1" source="Rv2WYrNyMHWKFGt1J1lI-17" target="Rv2WYrNyMHWKFGt1J1lI-13" edge="1">
          <mxGeometry relative="1" as="geometry">
            <Array as="points">
              <mxPoint x="-980" y="640" />
              <mxPoint x="-980" y="218" />
            </Array>
          </mxGeometry>
        </mxCell>
        <mxCell id="Rv2WYrNyMHWKFGt1J1lI-17" value="API resolver" style="rounded=0;whiteSpace=wrap;html=1;fillColor=#f8cecc;strokeColor=#b85450;" parent="1" vertex="1">
          <mxGeometry x="-650" y="625" width="90" height="30" as="geometry" />
        </mxCell>
        <mxCell id="Rv2WYrNyMHWKFGt1J1lI-38" style="edgeStyle=orthogonalEdgeStyle;rounded=0;comic=0;jumpStyle=arc;orthogonalLoop=1;jettySize=auto;html=1;entryX=0;entryY=0.5;entryDx=0;entryDy=0;" parent="1" source="Rv2WYrNyMHWKFGt1J1lI-21" target="Rv2WYrNyMHWKFGt1J1lI-58" edge="1">
          <mxGeometry relative="1" as="geometry">
            <Array as="points">
              <mxPoint x="-330" y="534" />
              <mxPoint x="-330" y="446" />
            </Array>
          </mxGeometry>
        </mxCell>
        <mxCell id="Rv2WYrNyMHWKFGt1J1lI-21" value="Body Schema" style="rounded=0;whiteSpace=wrap;html=1;" parent="1" vertex="1">
          <mxGeometry x="-530" y="520" width="90" height="29" as="geometry" />
        </mxCell>
        <mxCell id="Rv2WYrNyMHWKFGt1J1lI-40" value="build" style="edgeStyle=orthogonalEdgeStyle;rounded=0;comic=0;jumpStyle=arc;orthogonalLoop=1;jettySize=auto;html=1;" parent="1" source="Rv2WYrNyMHWKFGt1J1lI-24" target="Rv2WYrNyMHWKFGt1J1lI-39" edge="1">
          <mxGeometry relative="1" as="geometry" />
        </mxCell>
        <mxCell id="Rv2WYrNyMHWKFGt1J1lI-24" value="Header&lt;br&gt;Builder" style="rounded=0;whiteSpace=wrap;html=1;fillColor=#dae8fc;strokeColor=#6c8ebf;" parent="1" vertex="1">
          <mxGeometry x="-527" y="380" width="84" height="40" as="geometry" />
        </mxCell>
        <mxCell id="Rv2WYrNyMHWKFGt1J1lI-47" value="URL Search Params" style="edgeStyle=orthogonalEdgeStyle;rounded=0;comic=0;jumpStyle=arc;orthogonalLoop=1;jettySize=auto;html=1;entryX=0.5;entryY=1;entryDx=0;entryDy=0;" parent="1" source="Rv2WYrNyMHWKFGt1J1lI-29" target="Rv2WYrNyMHWKFGt1J1lI-34" edge="1">
          <mxGeometry x="0.4833" relative="1" as="geometry">
            <Array as="points">
              <mxPoint x="-233" y="178" />
            </Array>
            <mxPoint as="offset" />
          </mxGeometry>
        </mxCell>
        <mxCell id="Rv2WYrNyMHWKFGt1J1lI-61" value="body data" style="edgeStyle=orthogonalEdgeStyle;rounded=0;comic=0;jumpStyle=arc;orthogonalLoop=1;jettySize=auto;html=1;" parent="1" source="Rv2WYrNyMHWKFGt1J1lI-29" target="Rv2WYrNyMHWKFGt1J1lI-58" edge="1">
          <mxGeometry relative="1" as="geometry" />
        </mxCell>
        <mxCell id="Rv2WYrNyMHWKFGt1J1lI-29" value="Input Data" style="rounded=0;whiteSpace=wrap;html=1;fillColor=#e1d5e7;strokeColor=#9673a6;" parent="1" vertex="1">
          <mxGeometry x="-245" y="520" width="113" height="29" as="geometry" />
        </mxCell>
        <mxCell id="Rv2WYrNyMHWKFGt1J1lI-33" value="create" style="edgeStyle=orthogonalEdgeStyle;rounded=0;comic=0;jumpStyle=arc;orthogonalLoop=1;jettySize=auto;html=1;" parent="1" source="Rv2WYrNyMHWKFGt1J1lI-32" target="Rv2WYrNyMHWKFGt1J1lI-24" edge="1">
          <mxGeometry relative="1" as="geometry">
            <mxPoint x="-90" y="410" as="targetPoint" />
          </mxGeometry>
        </mxCell>
        <mxCell id="Rv2WYrNyMHWKFGt1J1lI-32" value="Header Builder Factory" style="rounded=0;whiteSpace=wrap;html=1;fillColor=#fff2cc;strokeColor=#d6b656;" parent="1" vertex="1">
          <mxGeometry x="-707" y="370" width="120" height="60" as="geometry" />
        </mxCell>
        <mxCell id="Rv2WYrNyMHWKFGt1J1lI-35" value="create" style="edgeStyle=orthogonalEdgeStyle;rounded=0;comic=0;jumpStyle=arc;orthogonalLoop=1;jettySize=auto;html=1;" parent="1" source="Rv2WYrNyMHWKFGt1J1lI-34" target="YEaYYTI55QeRDShldJgF-2" edge="1">
          <mxGeometry relative="1" as="geometry" />
        </mxCell>
        <mxCell id="Rv2WYrNyMHWKFGt1J1lI-34" value="URL creator" style="rounded=0;whiteSpace=wrap;html=1;fillColor=#dae8fc;strokeColor=#6c8ebf;" parent="1" vertex="1">
          <mxGeometry x="-293" y="125" width="120" height="60" as="geometry" />
        </mxCell>
        <mxCell id="Rv2WYrNyMHWKFGt1J1lI-43" value="create" style="edgeStyle=orthogonalEdgeStyle;rounded=0;comic=0;jumpStyle=arc;orthogonalLoop=1;jettySize=auto;html=1;" parent="1" source="Rv2WYrNyMHWKFGt1J1lI-37" target="Rv2WYrNyMHWKFGt1J1lI-41" edge="1">
          <mxGeometry relative="1" as="geometry" />
        </mxCell>
        <mxCell id="Rv2WYrNyMHWKFGt1J1lI-37" value="Body Builder&lt;br&gt;Factory" style="rounded=0;whiteSpace=wrap;html=1;fillColor=#fff2cc;strokeColor=#d6b656;" parent="1" vertex="1">
          <mxGeometry x="-710" y="284" width="120" height="60" as="geometry" />
        </mxCell>
        <mxCell id="Rv2WYrNyMHWKFGt1J1lI-42" value="header" style="edgeStyle=orthogonalEdgeStyle;rounded=0;comic=0;jumpStyle=arc;orthogonalLoop=1;jettySize=auto;html=1;" parent="1" source="Rv2WYrNyMHWKFGt1J1lI-39" target="Rv2WYrNyMHWKFGt1J1lI-41" edge="1">
          <mxGeometry relative="1" as="geometry" />
        </mxCell>
        <mxCell id="Rv2WYrNyMHWKFGt1J1lI-39" value="Header" style="rounded=0;whiteSpace=wrap;html=1;fillColor=#d5e8d4;strokeColor=#82b366;" parent="1" vertex="1">
          <mxGeometry x="-377" y="380" width="84" height="40" as="geometry" />
        </mxCell>
        <mxCell id="Rv2WYrNyMHWKFGt1J1lI-44" value="build" style="edgeStyle=orthogonalEdgeStyle;rounded=0;comic=0;jumpStyle=arc;orthogonalLoop=1;jettySize=auto;html=1;" parent="1" source="Rv2WYrNyMHWKFGt1J1lI-41" target="YEaYYTI55QeRDShldJgF-3" edge="1">
          <mxGeometry relative="1" as="geometry" />
        </mxCell>
        <mxCell id="Rv2WYrNyMHWKFGt1J1lI-41" value="Body Builder" style="rounded=0;whiteSpace=wrap;html=1;fillColor=#dae8fc;strokeColor=#6c8ebf;" parent="1" vertex="1">
          <mxGeometry x="-140" y="293" width="84" height="40" as="geometry" />
        </mxCell>
        <mxCell id="Rv2WYrNyMHWKFGt1J1lI-46" value="content" style="edgeStyle=orthogonalEdgeStyle;rounded=0;comic=0;jumpStyle=arc;orthogonalLoop=1;jettySize=auto;html=1;entryX=0.75;entryY=1;entryDx=0;entryDy=0;" parent="1" source="Rv2WYrNyMHWKFGt1J1lI-58" target="Rv2WYrNyMHWKFGt1J1lI-41" edge="1">
          <mxGeometry relative="1" as="geometry">
            <mxPoint x="-78" y="479" as="sourcePoint" />
          </mxGeometry>
        </mxCell>
        <mxCell id="Rv2WYrNyMHWKFGt1J1lI-51" style="edgeStyle=orthogonalEdgeStyle;rounded=0;comic=0;jumpStyle=arc;orthogonalLoop=1;jettySize=auto;html=1;" parent="1" source="Rv2WYrNyMHWKFGt1J1lI-49" target="YEaYYTI55QeRDShldJgF-1" edge="1">
          <mxGeometry relative="1" as="geometry" />
        </mxCell>
        <mxCell id="Rv2WYrNyMHWKFGt1J1lI-49" value="Requestor" style="rounded=0;whiteSpace=wrap;html=1;fillColor=#f8cecc;strokeColor=#b85450;" parent="1" vertex="1">
          <mxGeometry x="140" y="293" width="84" height="40" as="geometry" />
        </mxCell>
        <mxCell id="Rv2WYrNyMHWKFGt1J1lI-53" style="edgeStyle=orthogonalEdgeStyle;rounded=0;comic=0;jumpStyle=arc;orthogonalLoop=1;jettySize=auto;html=1;entryX=0.5;entryY=1;entryDx=0;entryDy=0;" parent="1" source="Rv2WYrNyMHWKFGt1J1lI-52" target="Rv2WYrNyMHWKFGt1J1lI-24" edge="1">
          <mxGeometry relative="1" as="geometry" />
        </mxCell>
        <mxCell id="Rv2WYrNyMHWKFGt1J1lI-52" value="Auth Data" style="rounded=0;whiteSpace=wrap;html=1;fillColor=#e1d5e7;strokeColor=#9673a6;" parent="1" vertex="1">
          <mxGeometry x="-545" y="460" width="120" height="40" as="geometry" />
        </mxCell>
        <mxCell id="Rv2WYrNyMHWKFGt1J1lI-55" style="edgeStyle=orthogonalEdgeStyle;rounded=0;comic=0;jumpStyle=arc;orthogonalLoop=1;jettySize=auto;html=1;entryX=0.424;entryY=1.041;entryDx=0;entryDy=0;entryPerimeter=0;exitX=0.25;exitY=0;exitDx=0;exitDy=0;" parent="1" source="Rv2WYrNyMHWKFGt1J1lI-54" target="Rv2WYrNyMHWKFGt1J1lI-29" edge="1">
          <mxGeometry relative="1" as="geometry" />
        </mxCell>
        <mxCell id="Rv2WYrNyMHWKFGt1J1lI-56" value="trigger" style="edgeStyle=orthogonalEdgeStyle;rounded=0;comic=0;jumpStyle=arc;orthogonalLoop=1;jettySize=auto;html=1;exitX=0.75;exitY=0;exitDx=0;exitDy=0;" parent="1" source="Rv2WYrNyMHWKFGt1J1lI-54" target="Rv2WYrNyMHWKFGt1J1lI-49" edge="1">
          <mxGeometry relative="1" as="geometry" />
        </mxCell>
        <mxCell id="Rv2WYrNyMHWKFGt1J1lI-62" style="edgeStyle=orthogonalEdgeStyle;rounded=0;comic=0;jumpStyle=arc;orthogonalLoop=1;jettySize=auto;html=1;entryX=1;entryY=0.5;entryDx=0;entryDy=0;" parent="1" source="Rv2WYrNyMHWKFGt1J1lI-54" target="Rv2WYrNyMHWKFGt1J1lI-17" edge="1">
          <mxGeometry relative="1" as="geometry" />
        </mxCell>
        <mxCell id="Rv2WYrNyMHWKFGt1J1lI-54" value="Service Requiring Data" style="rounded=0;whiteSpace=wrap;html=1;fillColor=#ffe6cc;strokeColor=#d79b00;" parent="1" vertex="1">
          <mxGeometry x="-280" y="600" width="330" height="80" as="geometry" />
        </mxCell>
        <mxCell id="Rv2WYrNyMHWKFGt1J1lI-58" value="Serializer" style="rounded=0;whiteSpace=wrap;html=1;fillColor=#fff2cc;strokeColor=#d6b656;" parent="1" vertex="1">
          <mxGeometry x="-130" y="431" width="113" height="29" as="geometry" />
        </mxCell>
        <mxCell id="Rv2WYrNyMHWKFGt1J1lI-66" value="supply" style="edgeStyle=orthogonalEdgeStyle;rounded=0;comic=0;jumpStyle=arc;orthogonalLoop=1;jettySize=auto;html=1;entryX=0;entryY=0.5;entryDx=0;entryDy=0;exitX=0.5;exitY=0;exitDx=0;exitDy=0;" parent="1" source="Rv2WYrNyMHWKFGt1J1lI-65" target="Rv2WYrNyMHWKFGt1J1lI-52" edge="1">
          <mxGeometry relative="1" as="geometry" />
        </mxCell>
        <mxCell id="Rv2WYrNyMHWKFGt1J1lI-65" value="Authenticator" style="rounded=0;whiteSpace=wrap;html=1;fillColor=#dae8fc;strokeColor=#6c8ebf;" parent="1" vertex="1">
          <mxGeometry x="-810" y="730" width="120" height="60" as="geometry" />
        </mxCell>
        <mxCell id="Rv2WYrNyMHWKFGt1J1lI-68" value="context identity" style="edgeStyle=orthogonalEdgeStyle;rounded=0;comic=0;jumpStyle=arc;orthogonalLoop=1;jettySize=auto;html=1;" parent="1" source="Rv2WYrNyMHWKFGt1J1lI-67" target="Rv2WYrNyMHWKFGt1J1lI-65" edge="1">
          <mxGeometry relative="1" as="geometry" />
        </mxCell>
        <mxCell id="Rv2WYrNyMHWKFGt1J1lI-69" value="call" style="edgeStyle=orthogonalEdgeStyle;rounded=0;comic=0;jumpStyle=arc;orthogonalLoop=1;jettySize=auto;html=1;" parent="1" source="Rv2WYrNyMHWKFGt1J1lI-67" target="Rv2WYrNyMHWKFGt1J1lI-54" edge="1">
          <mxGeometry relative="1" as="geometry" />
        </mxCell>
        <mxCell id="Rv2WYrNyMHWKFGt1J1lI-67" value="client" style="rounded=0;whiteSpace=wrap;html=1;fillColor=#e1d5e7;strokeColor=#9673a6;" parent="1" vertex="1">
          <mxGeometry x="-175" y="730" width="120" height="60" as="geometry" />
        </mxCell>
        <mxCell id="F3YBKX0VKp_HGD5JH7Og-5" value="&lt;&lt;interface&gt;&gt;&#xa;RequestBuilderFactory" style="swimlane;fontStyle=1;align=center;verticalAlign=top;childLayout=stackLayout;horizontal=1;startSize=40;horizontalStack=0;resizeParent=1;resizeParentMax=0;resizeLast=0;collapsible=1;marginBottom=0;" vertex="1" collapsed="1" parent="1">
          <mxGeometry x="-1160" y="860" width="160" height="40" as="geometry">
            <mxRectangle x="-1160" y="860" width="190" height="100" as="alternateBounds" />
          </mxGeometry>
        </mxCell>
        <mxCell id="F3YBKX0VKp_HGD5JH7Og-6" value="+ field: type" style="text;strokeColor=none;fillColor=none;align=left;verticalAlign=top;spacingLeft=4;spacingRight=4;overflow=hidden;rotatable=0;points=[[0,0.5],[1,0.5]];portConstraint=eastwest;" vertex="1" parent="F3YBKX0VKp_HGD5JH7Og-5">
          <mxGeometry y="40" width="160" height="26" as="geometry" />
        </mxCell>
        <mxCell id="F3YBKX0VKp_HGD5JH7Og-7" value="" style="line;strokeWidth=1;fillColor=none;align=left;verticalAlign=middle;spacingTop=-1;spacingLeft=3;spacingRight=3;rotatable=0;labelPosition=right;points=[];portConstraint=eastwest;" vertex="1" parent="F3YBKX0VKp_HGD5JH7Og-5">
          <mxGeometry y="66" width="160" height="8" as="geometry" />
        </mxCell>
        <mxCell id="F3YBKX0VKp_HGD5JH7Og-8" value="+ method(type): type" style="text;strokeColor=none;fillColor=none;align=left;verticalAlign=top;spacingLeft=4;spacingRight=4;overflow=hidden;rotatable=0;points=[[0,0.5],[1,0.5]];portConstraint=eastwest;" vertex="1" parent="F3YBKX0VKp_HGD5JH7Og-5">
          <mxGeometry y="74" width="160" height="26" as="geometry" />
        </mxCell>
        <mxCell id="F3YBKX0VKp_HGD5JH7Og-9" value="&lt;&lt;interface&gt;&gt;&#xa;RequestBodyBuilder" style="swimlane;fontStyle=1;align=center;verticalAlign=top;childLayout=stackLayout;horizontal=1;startSize=40;horizontalStack=0;resizeParent=1;resizeParentMax=0;resizeLast=0;collapsible=1;marginBottom=0;" vertex="1" collapsed="1" parent="1">
          <mxGeometry x="-810" y="860" width="160" height="40" as="geometry">
            <mxRectangle x="-810" y="860" width="190" height="100" as="alternateBounds" />
          </mxGeometry>
        </mxCell>
        <mxCell id="F3YBKX0VKp_HGD5JH7Og-10" value="+ field: type" style="text;strokeColor=none;fillColor=none;align=left;verticalAlign=top;spacingLeft=4;spacingRight=4;overflow=hidden;rotatable=0;points=[[0,0.5],[1,0.5]];portConstraint=eastwest;" vertex="1" parent="F3YBKX0VKp_HGD5JH7Og-9">
          <mxGeometry y="40" width="160" height="26" as="geometry" />
        </mxCell>
        <mxCell id="F3YBKX0VKp_HGD5JH7Og-11" value="" style="line;strokeWidth=1;fillColor=none;align=left;verticalAlign=middle;spacingTop=-1;spacingLeft=3;spacingRight=3;rotatable=0;labelPosition=right;points=[];portConstraint=eastwest;" vertex="1" parent="F3YBKX0VKp_HGD5JH7Og-9">
          <mxGeometry y="66" width="160" height="8" as="geometry" />
        </mxCell>
        <mxCell id="F3YBKX0VKp_HGD5JH7Og-12" value="+ method(type): type" style="text;strokeColor=none;fillColor=none;align=left;verticalAlign=top;spacingLeft=4;spacingRight=4;overflow=hidden;rotatable=0;points=[[0,0.5],[1,0.5]];portConstraint=eastwest;" vertex="1" parent="F3YBKX0VKp_HGD5JH7Og-9">
          <mxGeometry y="74" width="160" height="26" as="geometry" />
        </mxCell>
      </root>
    </mxGraphModel>
  </diagram>
</mxfile>
